<?xml version="1.0" encoding="iso-8859-1"?>
<!-- Generator: Adobe Illustrator 19.0.0, SVG Export Plug-In . SVG Version: 6.00 Build 0)  -->
<svg version="1.1" id="Layer_1" xmlns="http://www.w3.org/2000/svg" xmlns:xlink="http://www.w3.org/1999/xlink" x="0px" y="0px"
	 viewBox="0 0 460 460" style="enable-background:new 0 0 460 460;" xml:space="preserve">
<g id="XMLID_1258_">
	<polygon id="XMLID_1259_" style="fill:#FA6121;" points="278.385,338.42 317.905,430 244.015,450 244.015,338.42 	"/>
	<polygon id="XMLID_1260_" style="fill:#FB7B46;" points="254.015,338.42 254.015,450 190.125,430 229.655,338.42 	"/>
	<path id="XMLID_1261_" style="fill:#BEC8D6;" d="M406.205,283.16l-10.61,10.6c-37.82,37.82-88.1,58.65-141.58,58.65
		s-103.76-20.83-141.58-58.65l0.999-20.993l20.221-0.217c32.15,32.15,74.9,49.86,120.36,49.86c40.43,0,78.71-14,109.3-39.71
		l-119.91-119.91l21.22-21.21L406.205,283.16z"/>
	<path id="XMLID_1262_" style="fill:#DAE0E7;" d="M264.625,141.58l-21.22,21.21l-119.9-119.9
		c-56.03,66.81-52.65,166.86,10.15,229.66l-21.22,21.21c-37.81-37.81-58.64-88.09-58.64-141.57c0-53.49,20.83-103.77,58.64-141.58
		L123.045,0L264.625,141.58z"/>
	<polygon id="XMLID_1263_" style="fill:#BB4919;" points="254.015,430 234.015,445 254.015,460 374.015,460 374.015,430 	"/>
	<rect id="XMLID_1264_" x="134.015" y="430" style="fill:#FA6121;" width="120" height="30"/>
	<path id="XMLID_1265_" style="fill:#233145;" d="M254.015,304.37l-20-172.18l172.19,20
		C406.205,236.24,338.065,304.37,254.015,304.37z"/>
	<path id="XMLID_1266_" style="fill:#354A67;" d="M254.015,132.19v172.18c-84.05,0-152.18-68.13-152.18-152.18L254.015,132.19z"/>
	<path id="XMLID_1267_" style="fill:#354A67;" d="M406.205,152.19h-152.19l-30-76.095l30-76.095
		C338.065,0,406.205,68.14,406.205,152.19z"/>
	<path id="XMLID_1268_" style="fill:#466289;" d="M254.015,0v152.19h-152.18C101.835,68.14,169.965,0,254.015,0z"/>
</g>
<g>
</g>
<g>
</g>
<g>
</g>
<g>
</g>
<g>
</g>
<g>
</g>
<g>
</g>
<g>
</g>
<g>
</g>
<g>
</g>
<g>
</g>
<g>
</g>
<g>
</g>
<g>
</g>
<g>
</g>
</svg>
